<?xml version="1.0" encoding="iso-8859-1"?>
<!-- Generator: Adobe Illustrator 19.0.0, SVG Export Plug-In . SVG Version: 6.00 Build 0)  -->
<svg version="1.1" id="Capa_1" xmlns="http://www.w3.org/2000/svg" xmlns:xlink="http://www.w3.org/1999/xlink" x="0px" y="0px"
	 viewBox="0 0 512 512" style="enable-background:new 0 0 512 512;" xml:space="preserve">
<path style="fill:#E6E6E6;" d="M76.8,204.764V35.932l52.838-12.578c83.081-19.806,169.643-19.806,252.723,0L435.2,35.932v168.832"/>
<path style="fill:#CCCCCC;" d="M500.343,228.964c-155.443-69.683-333.244-69.683-488.687,0l-3.123,1.399V503.43h494.933V230.364
	L500.343,228.964z"/>
<g>
	<path style="fill:#29ABE2;" d="M85.333,443.697h85.333v59.733H85.333V443.697z"/>
	<path style="fill:#29ABE2;" d="M341.333,443.697h85.333v59.733h-85.333V443.697z"/>
</g>
<g>
	<path style="fill:#0071BC;" d="M128,443.697h42.667v59.733H128V443.697z"/>
	<path style="fill:#0071BC;" d="M384,443.697h42.667v59.733H384V443.697z"/>
</g>
<path style="fill:#29ABE2;" d="M42.667,247.43h119.467v85.333H42.667V247.43z"/>
<path style="fill:#0071BC;" d="M196.267,247.43h119.467v85.333H196.267V247.43z"/>
<path style="fill:#29ABE2;" d="M349.867,247.43h119.467v85.333H349.867V247.43z"/>
<path style="fill:#C3922E;" d="M8.533,366.897h494.933v34.133H8.533V366.897z"/>
<path style="fill:#27689E;" d="M76.8,59.697h358.4v85.333H76.8V59.697z"/>
<path style="fill:#06AAE9;" d="M256,59.697h59.733v85.333H256V59.697z"/>
<g>
	<path style="fill:#4EC3C7;" d="M315.733,59.697h59.733v85.333h-59.733V59.697z"/>
	<path style="fill:#4EC3C7;" d="M196.267,59.697H256v85.333h-59.733V59.697z"/>
</g>
<path style="fill:#06AAE9;" d="M136.533,59.697h59.733v85.333h-59.733V59.697z"/>
<path d="M443.733,204.755h-17.067V42.673l-46.285-11.025c-81.365-19.388-167.39-19.396-248.764,0L85.333,42.673v162.091H68.267
	V35.932c0-3.951,2.714-7.39,6.562-8.303l52.838-12.578c83.951-20.019,172.715-20.019,256.674,0l52.838,12.578
	c3.84,0.913,6.554,4.352,6.554,8.303V204.755z"/>
<path d="M503.467,511.964H8.533c-4.71,0-8.533-3.814-8.533-8.533V230.364c0-3.371,1.98-6.417,5.052-7.791l3.123-1.399
	c157.491-70.596,338.168-70.596,495.65,0l3.115,1.391c3.081,1.374,5.06,4.429,5.06,7.791v273.067
	C512,508.149,508.186,511.964,503.467,511.964z M17.067,494.897h477.867V235.893c-151.996-67.482-325.897-67.473-477.867,0V494.897z
	"/>
<path d="M170.667,511.964H85.333c-4.71,0-8.533-3.814-8.533-8.533v-59.733c0-4.719,3.823-8.533,8.533-8.533h85.333
	c4.71,0,8.533,3.814,8.533,8.533v59.733C179.2,508.149,175.377,511.964,170.667,511.964z M93.867,494.897h68.267V452.23H93.867
	V494.897z"/>
<path d="M426.667,511.964h-85.333c-4.719,0-8.533-3.814-8.533-8.533v-59.733c0-4.719,3.814-8.533,8.533-8.533h85.333
	c4.719,0,8.533,3.814,8.533,8.533v59.733C435.2,508.149,431.386,511.964,426.667,511.964z M349.867,494.897h68.267V452.23h-68.267
	V494.897z"/>
<path d="M170.667,511.964H128c-4.71,0-8.533-3.814-8.533-8.533v-59.733c0-4.719,3.823-8.533,8.533-8.533h42.667
	c4.71,0,8.533,3.814,8.533,8.533v59.733C179.2,508.149,175.377,511.964,170.667,511.964z M136.533,494.897h25.6V452.23h-25.6
	V494.897z"/>
<path d="M426.667,511.964H384c-4.719,0-8.533-3.814-8.533-8.533v-59.733c0-4.719,3.814-8.533,8.533-8.533h42.667
	c4.719,0,8.533,3.814,8.533,8.533v59.733C435.2,508.149,431.386,511.964,426.667,511.964z M392.533,494.897h25.6V452.23h-25.6
	V494.897z"/>
<path d="M162.133,341.297H42.667c-4.71,0-8.533-3.814-8.533-8.533V247.43c0-4.71,3.823-8.533,8.533-8.533h119.467
	c4.71,0,8.533,3.823,8.533,8.533v85.333C170.667,337.483,166.844,341.297,162.133,341.297z M51.2,324.23h102.4v-68.267H51.2V324.23z
	"/>
<path d="M315.733,341.297H196.267c-4.71,0-8.533-3.814-8.533-8.533V247.43c0-4.71,3.823-8.533,8.533-8.533h119.467
	c4.719,0,8.533,3.823,8.533,8.533v85.333C324.267,337.483,320.452,341.297,315.733,341.297z M204.8,324.23h102.4v-68.267H204.8
	V324.23z"/>
<path d="M469.333,341.297H349.867c-4.719,0-8.533-3.814-8.533-8.533V247.43c0-4.71,3.814-8.533,8.533-8.533h119.467
	c4.719,0,8.533,3.823,8.533,8.533v85.333C477.867,337.483,474.052,341.297,469.333,341.297z M358.4,324.23h102.4v-68.267H358.4
	V324.23z"/>
<path style="fill:#FFFFFF;" d="M8.533,366.897h494.933v34.133H8.533V366.897z"/>
<path d="M503.467,409.564H8.533c-4.71,0-8.533-3.814-8.533-8.533v-34.133c0-4.719,3.823-8.533,8.533-8.533h494.933
	c4.719,0,8.533,3.814,8.533,8.533v34.133C512,405.749,508.186,409.564,503.467,409.564z M17.067,392.497h477.867V375.43H17.067
	V392.497z"/>
<path d="M435.2,153.555H76.8c-4.71,0-8.533-3.823-8.533-8.533V59.689c0-4.71,3.823-8.533,8.533-8.533h358.4
	c4.719,0,8.533,3.823,8.533,8.533v85.333C443.733,149.741,439.919,153.555,435.2,153.555z M85.333,136.489h341.333V68.222H85.333
	V136.489z"/>
<path d="M315.733,153.555H256c-4.71,0-8.533-3.823-8.533-8.533V59.689c0-4.71,3.823-8.533,8.533-8.533h59.733
	c4.719,0,8.533,3.823,8.533,8.533v85.333C324.267,149.741,320.452,153.555,315.733,153.555z M264.533,136.489H307.2V68.222h-42.667
	V136.489z"/>
<path d="M375.467,153.555h-59.733c-4.719,0-8.533-3.823-8.533-8.533V59.689c0-4.71,3.814-8.533,8.533-8.533h59.733
	c4.719,0,8.533,3.823,8.533,8.533v85.333C384,149.741,380.186,153.555,375.467,153.555z M324.267,136.489h42.667V68.222h-42.667
	V136.489z"/>
<path d="M256,153.555h-59.733c-4.71,0-8.533-3.823-8.533-8.533V59.689c0-4.71,3.823-8.533,8.533-8.533H256
	c4.71,0,8.533,3.823,8.533,8.533v85.333C264.533,149.741,260.71,153.555,256,153.555z M204.8,136.489h42.667V68.222H204.8V136.489z"
	/>
<path d="M196.267,153.555h-59.733c-4.71,0-8.533-3.823-8.533-8.533V59.689c0-4.71,3.823-8.533,8.533-8.533h59.733
	c4.71,0,8.533,3.823,8.533,8.533v85.333C204.8,149.741,200.977,153.555,196.267,153.555z M145.067,136.489h42.667V68.222h-42.667
	V136.489z"/>
<g>
</g>
<g>
</g>
<g>
</g>
<g>
</g>
<g>
</g>
<g>
</g>
<g>
</g>
<g>
</g>
<g>
</g>
<g>
</g>
<g>
</g>
<g>
</g>
<g>
</g>
<g>
</g>
<g>
</g>
</svg>
